# xmcd
#
# Track frame offsets:
#	150
#	23839
#	43882
#	71770
#	94096
#	111618
#	131303
#	162400
#	185507
#	202149
#	218489
#	238750
#
# Disc length: 3836 seconds
#
# Revision: 1
# Processed by: cddbd v1.5PL3 Copyright (c) Steve Scherf et al.
# Submitted via: EasyCDDAExtractor 7.0.5.1
#
DISCID=b30efa0c
DTITLE=Bernard Allison - Hang On
DYEAR=1994
DGENRE=Blues
TTITLE0=Mai
TTITLE1=Going Down
TTITLE2=Cadillac Assimbly Line
TTITLE3=Voodoo Thang
TTITLE4=Missing Stevie
TTITLE5=Actions Speak Louder Than Words
TTITLE6=Rockin( Robin
TTITLE7=You're Hurting Me
TTITLE8=Hang On
TTITLE9=Looing Beyond The Past
TTITLE10=Idols In Mind
TTITLE11=Voodoo Chile Medley
EXTD=
EXTT0=
EXTT1=
EXTT2=
EXTT3=
EXTT4=
EXTT5=
EXTT6=
EXTT7=
EXTT8=
EXTT9=
EXTT10=
EXTT11=
PLAYORDER=
